<svg width="22" height="22" viewBox="0 0 22 22" fill="none" xmlns="http://www.w3.org/2000/svg">
<path fill-rule="evenodd" clip-rule="evenodd" d="M5.1575 0.850272C6.2745 0.865272 7.0705 1.70227 8.0775 2.76127C8.3265 3.02227 8.5955 3.30727 8.8965 3.60727C10.3555 5.06727 9.9405 6.25827 9.6055 7.21427C9.2415 8.25727 8.9265 9.15727 10.8125 11.0433C12.6985 12.9293 13.5975 12.6143 14.6395 12.2473C15.5965 11.9133 16.7845 11.4953 18.2465 12.9553C18.5435 13.2523 18.8235 13.5183 19.0835 13.7653C20.1465 14.7773 20.9865 15.5763 21.0007 16.6963C21.0115 17.6503 20.4315 18.6243 18.9995 20.0563L18.3655 19.6263L18.9025 20.1493C18.5855 20.4743 17.7425 21.3403 16.0915 21.3503H16.0615C13.5695 21.3503 10.3205 19.3663 6.4045 15.4513C2.4725 11.5203 0.485503 8.26127 0.500419 5.76427C0.509503 4.11427 1.3745 3.26927 1.6995 2.95227L1.72724 2.92198L1.7945 2.85427C3.2295 1.41927 4.2155 0.829272 5.1575 0.850272ZM5.1385 2.35027H5.1305C4.68144 2.35027 3.99947 2.80027 3.04833 3.72417L2.85734 3.91173L2.8595 3.91127C2.8595 3.91127 2.84318 3.92999 2.81537 3.95836L2.7485 4.02527C2.5065 4.26027 2.0055 4.74927 2.00045 5.77227C1.9925 7.20327 2.9335 9.86027 7.4645 14.3903C11.9735 18.8983 14.6265 19.8503 16.0615 19.8503H16.0825C17.1055 19.8443 17.5935 19.3433 17.8285 19.1023C17.8995 19.0293 17.9575 18.9743 17.9985 18.9413C18.9955 17.9383 19.5055 17.1933 19.5005 16.7143C19.4945 16.2263 18.8875 15.6503 18.0485 14.8513C17.7815 14.5983 17.4915 14.3213 17.1855 14.0153C16.3915 13.2243 16.0005 13.3593 15.1355 13.6633C13.9405 14.0823 12.3035 14.6563 9.7525 12.1033C7.2005 9.55227 7.7725 7.91527 8.1895 6.71927C8.4915 5.85527 8.6295 5.46227 7.8365 4.66827C7.5265 4.35827 7.2475 4.06427 6.9905 3.79427C6.1965 2.96027 5.6235 2.35727 5.1385 2.35027ZM13.7466 4.40777C15.8276 4.81177 17.4346 6.41777 17.8396 8.49977C17.9186 8.90777 17.6536 9.30077 17.2476 9.37977C17.1986 9.38877 17.1506 9.39377 17.1026 9.39377C16.7506 9.39377 16.4376 9.14577 16.3676 8.78777C16.0796 7.30777 14.9386 6.16677 13.4606 5.87977C13.0536 5.80077 12.7886 5.40777 12.8676 5.00077C12.9466 4.59377 13.3466 4.32777 13.7466 4.40777ZM13.6867 0.855972C17.7647 1.30897 20.9317 4.47197 21.3887 8.54897C21.4347 8.96097 21.1387 9.33197 20.7277 9.37797C20.6997 9.38097 20.6707 9.38297 20.6427 9.38297C20.2657 9.38297 19.9417 9.09997 19.8987 8.71697C19.5197 5.34097 16.8977 2.72097 13.5207 2.34597C13.1097 2.29997 12.8127 1.92997 12.8587 1.51797C12.9037 1.10697 13.2707 0.803972 13.6867 0.855972Z" fill="white"/>
</svg>
