<svg width="49" height="48" viewBox="0 0 49 48" fill="none" xmlns="http://www.w3.org/2000/svg">
<g clip-path="url(#clip0_1_388)">
<path d="M23.1655 0V5.33109H20.4966L17.8345 8V9.33446L9.83446 17.3345H8.5L5.83109 19.9966V22.6655H0.5V17.3345L17.8345 0H23.1655Z" fill="white" fill-opacity="0.3"/>
<path d="M20.4966 42.6622H23.1656V48H17.8345L0.500015 30.6656V25.3345H5.8311V27.9966L8.50001 30.6656H9.83447L17.8345 38.6656V40L20.4966 42.6622Z" fill="white" fill-opacity="0.3"/>
<path d="M48.5 17.3345V22.6655H43.1622V19.9966L40.5 17.3345H39.1656L31.1656 9.33446V8L28.4966 5.33109H25.8345V0H31.1656L48.5 17.3345Z" fill="white" fill-opacity="0.3"/>
<path d="M43.1622 25.3345H48.5V30.6656L31.1656 48H25.8345V42.6622H28.4966L31.1656 40V38.6656L39.1656 30.6656H40.5L43.1622 27.9966V25.3345Z" fill="white" fill-opacity="0.3"/>
<path d="M24.7629 14.9625L24.7629 32.4368" stroke="white" stroke-width="3" stroke-linecap="square" stroke-linejoin="round"/>
<path d="M33.5 24.5734L24.7629 33.3106L16.0257 24.5734" stroke="white" stroke-width="3" stroke-linecap="square" stroke-linejoin="round"/>
</g>
<defs>
<clipPath id="clip0_1_388">
<rect width="48" height="48" fill="white" transform="translate(0.5)"/>
</clipPath>
</defs>
</svg>
