<svg width="148" height="148" viewBox="0 0 148 148" fill="none" xmlns="http://www.w3.org/2000/svg">
<circle cx="74.0001" cy="74.0001" r="60" transform="rotate(-15 74.0001 74.0001)" fill="url(#paint0_linear_1_368)"/>
<g clip-path="url(#clip0_1_368)">
<path d="M87.7975 53.0486L51.5753 62.7543C49.9742 63.1833 48.6091 64.2308 47.7803 65.6664C46.9515 67.1019 46.7269 68.8079 47.1559 70.409L52.548 90.5324C52.977 92.1336 54.0245 93.4987 55.46 94.3275C56.8955 95.1563 58.6015 95.3809 60.2026 94.9519L96.4248 85.2461C98.0259 84.8171 99.3911 83.7696 100.22 82.3341C101.049 80.8986 101.273 79.1926 100.844 77.5915L95.4522 57.468C95.0232 55.8669 93.9757 54.5018 92.5401 53.673C91.1046 52.8442 89.3986 52.6196 87.7975 53.0486ZM68.5022 77.6302L64.4775 78.7086L65.556 82.7333L61.5313 83.8117L60.4529 79.787L56.4282 80.8654L55.3497 76.8407L59.3744 75.7623L58.296 71.7376L62.3207 70.6592L63.3991 74.6839L67.4238 73.6055L68.5022 77.6302ZM87.6918 76.802C86.4977 77.122 85.2357 77.0807 84.0651 76.6833C82.8946 76.286 81.8682 75.5504 81.1157 74.5698C80.3632 73.5891 79.9184 72.4073 79.8375 71.1738C79.7567 69.9403 80.0434 68.7105 80.6615 67.64C81.2795 66.5695 82.2012 65.7063 83.3098 65.1595C84.4185 64.6128 85.6644 64.4071 86.8899 64.5685C88.1155 64.7298 89.2657 65.251 90.195 66.066C91.1244 66.881 91.7912 67.9534 92.1112 69.1474C92.5402 70.7485 92.3156 72.4545 91.4868 73.89C90.658 75.3255 89.2929 76.373 87.6918 76.802Z" fill="url(#paint1_linear_1_368)"/>
</g>
<defs>
<linearGradient id="paint0_linear_1_368" x1="28.6667" y1="146" x2="80.6667" y2="44.6668" gradientUnits="userSpaceOnUse">
<stop stop-color="#8060FF"/>
<stop offset="1" stop-color="#F2EFFF"/>
</linearGradient>
<linearGradient id="paint1_linear_1_368" x1="85.3394" y1="51.1191" x2="87.1516" y2="93.1103" gradientUnits="userSpaceOnUse">
<stop stop-color="#B3ACFF"/>
<stop offset="1" stop-color="#2C0CAC"/>
</linearGradient>
<clipPath id="clip0_1_368">
<rect width="50" height="50" fill="white" transform="translate(43.3815 56.3225) rotate(-15)"/>
</clipPath>
</defs>
</svg>
