<svg width="111" height="111" viewBox="0 0 111 111" fill="none" xmlns="http://www.w3.org/2000/svg">
<circle cx="55.1135" cy="55.1135" r="45" transform="rotate(-15 55.1135 55.1135)" fill="url(#paint0_linear_1_355)"/>
<g clip-path="url(#clip0_1_355)">
<path d="M67.52 47.5882L58.6375 48.6366L52.744 41.918C52.5825 41.7592 52.3823 41.6454 52.1632 41.5877C51.9442 41.53 51.7139 41.5305 51.4951 41.5892C51.2763 41.6478 51.0766 41.7625 50.9157 41.922C50.7549 42.0814 50.6384 42.2801 50.5779 42.4984L48.8261 51.2656L40.6093 54.7989C40.395 54.8908 40.2106 55.0408 40.0771 55.2321C39.9436 55.4233 39.8663 55.648 39.8538 55.8809C39.8414 56.1138 39.8943 56.3455 40.0067 56.5499C40.119 56.7543 40.2863 56.9231 40.4896 57.0374L48.2933 61.4091L49.1153 70.3161C49.1368 70.5483 49.2228 70.7699 49.3636 70.9558C49.5044 71.1418 49.6944 71.2846 49.9122 71.3681C50.1299 71.4517 50.3667 71.4727 50.5957 71.4287C50.8248 71.3847 51.0369 71.2775 51.2083 71.1193L57.7778 65.0509L66.5013 67.0215C66.7288 67.0729 66.9661 67.0597 67.1865 66.9832C67.4068 66.9068 67.6014 66.7702 67.7482 66.589C67.8949 66.4078 67.9881 66.1891 68.0171 65.9576C68.0461 65.7262 68.0098 65.4913 67.9122 65.2795L64.1707 57.1548L68.7429 49.4669C68.8619 49.2665 68.9224 49.0368 68.9177 48.8038C68.913 48.5707 68.8432 48.3437 68.7163 48.1482C68.5894 47.9527 68.4103 47.7967 68.1993 47.6976C67.9884 47.5985 67.7539 47.5604 67.5224 47.5875L67.52 47.5882Z" fill="url(#paint1_linear_1_355)"/>
</g>
<defs>
<linearGradient id="paint0_linear_1_355" x1="21.1135" y1="109.114" x2="60.1135" y2="33.1135" gradientUnits="userSpaceOnUse">
<stop stop-color="#8060FF"/>
<stop offset="1" stop-color="#F2EFFF"/>
</linearGradient>
<linearGradient id="paint1_linear_1_355" x1="51.4916" y1="41.5901" x2="58.8921" y2="69.2091" gradientUnits="userSpaceOnUse">
<stop stop-color="#111111"/>
<stop offset="1" stop-color="#47358F"/>
</linearGradient>
<clipPath id="clip0_1_355">
<rect width="30" height="30" fill="white" transform="translate(36.7423 44.507) rotate(-15)"/>
</clipPath>
</defs>
</svg>
